
    <svg width="300" height="285" viewBox="0 0 300 285" fill="none" xmlns="http://www.w3.org/2000/svg">
      <style>
        .header { font: 600 18px 'Segoe UI', Ubuntu, Sans-Serif; fill: #00b4d8 }
        .lang-name { font: 400 11px 'Segoe UI', Ubuntu, Sans-Serif; fill: #ffffff }
      </style>
      <rect data-testid="card-bg" x="0.5" y="0.5" width="99.7%" height="99%" rx="4.5" fill="#0d1117" stroke="#E4E2E2"/>

      
      <text data-testid="header" x="25" y="35" class="header">Top Languages</text>

      <svg data-testid="lang-items" x="25" y="55">
      <g transform="translate(0, 0)">
    <text data-testid="lang-name" x="2" y="15" class="lang-name">TypeScript</text>
    <text x="215" y="34" class="lang-name">36.17%</text>
    <svg width="205">
      <rect rx="5" ry="5" x="0" y="25" width="205" height="8" fill="#ddd"></rect>
      <rect 
        height="8" 
        fill="#3178c6"
        rx="5" ry="5" x="0" y="25" 
        data-testid="lang-progress" 
        width="36.17%"
      >
      </rect>
    </svg>
  </g><g transform="translate(0, 40)">
    <text data-testid="lang-name" x="2" y="15" class="lang-name">HTML</text>
    <text x="215" y="34" class="lang-name">25.47%</text>
    <svg width="205">
      <rect rx="5" ry="5" x="0" y="25" width="205" height="8" fill="#ddd"></rect>
      <rect 
        height="8" 
        fill="#e34c26"
        rx="5" ry="5" x="0" y="25" 
        data-testid="lang-progress" 
        width="25.47%"
      >
      </rect>
    </svg>
  </g><g transform="translate(0, 80)">
    <text data-testid="lang-name" x="2" y="15" class="lang-name">C++</text>
    <text x="215" y="34" class="lang-name">17.16%</text>
    <svg width="205">
      <rect rx="5" ry="5" x="0" y="25" width="205" height="8" fill="#ddd"></rect>
      <rect 
        height="8" 
        fill="#f34b7d"
        rx="5" ry="5" x="0" y="25" 
        data-testid="lang-progress" 
        width="17.16%"
      >
      </rect>
    </svg>
  </g><g transform="translate(0, 120)">
    <text data-testid="lang-name" x="2" y="15" class="lang-name">Python</text>
    <text x="215" y="34" class="lang-name">16.67%</text>
    <svg width="205">
      <rect rx="5" ry="5" x="0" y="25" width="205" height="8" fill="#ddd"></rect>
      <rect 
        height="8" 
        fill="#3572A5"
        rx="5" ry="5" x="0" y="25" 
        data-testid="lang-progress" 
        width="16.67%"
      >
      </rect>
    </svg>
  </g><g transform="translate(0, 160)">
    <text data-testid="lang-name" x="2" y="15" class="lang-name">Jupyter Notebook</text>
    <text x="215" y="34" class="lang-name">4.52%</text>
    <svg width="205">
      <rect rx="5" ry="5" x="0" y="25" width="205" height="8" fill="#ddd"></rect>
      <rect 
        height="8" 
        fill="#DA5B0B"
        rx="5" ry="5" x="0" y="25" 
        data-testid="lang-progress" 
        width="4.52%"
      >
      </rect>
    </svg>
  </g>
      </svg>
    </svg>
  